<svg xmlns="http://www.w3.org/2000/svg" width="16" height="17" viewBox="0 0 16 17" fill="none">
  <path d="M5.33337 1.8335V3.8335" stroke="#292D32" stroke-width="1.5" stroke-miterlimit="10" stroke-linecap="round" stroke-linejoin="round"/>
  <path d="M10.6666 1.8335V3.8335" stroke="#292D32" stroke-width="1.5" stroke-miterlimit="10" stroke-linecap="round" stroke-linejoin="round"/>
  <path d="M10.6667 2.8335C12.8867 2.9535 14 3.80016 14 6.9335V11.0535C14 13.8002 13.3333 15.1735 10 15.1735H6C2.66667 15.1735 2 13.8002 2 11.0535V6.9335C2 3.80016 3.11333 2.96016 5.33333 2.8335H10.6667Z" stroke="#292D32" stroke-width="1.5" stroke-miterlimit="10" stroke-linecap="round" stroke-linejoin="round"/>
  <path d="M13.8333 12.2334H2.16663" stroke="#292D32" stroke-width="1.5" stroke-miterlimit="10" stroke-linecap="round" stroke-linejoin="round"/>
  <path d="M8.00004 6C7.18004 6 6.48671 6.44667 6.48671 7.31333C6.48671 7.72667 6.68004 8.04 6.97337 8.24C6.56671 8.48 6.33337 8.86667 6.33337 9.32C6.33337 10.1467 6.96671 10.66 8.00004 10.66C9.02671 10.66 9.66671 10.1467 9.66671 9.32C9.66671 8.86667 9.43337 8.47333 9.02004 8.24C9.32004 8.03333 9.50671 7.72667 9.50671 7.31333C9.50671 6.44667 8.82004 6 8.00004 6ZM8.00004 7.89333C7.65337 7.89333 7.40004 7.68667 7.40004 7.36C7.40004 7.02667 7.65337 6.83333 8.00004 6.83333C8.34671 6.83333 8.60004 7.02667 8.60004 7.36C8.60004 7.68667 8.34671 7.89333 8.00004 7.89333ZM8.00004 9.83333C7.56004 9.83333 7.24004 9.61333 7.24004 9.21333C7.24004 8.81333 7.56004 8.6 8.00004 8.6C8.44004 8.6 8.76004 8.82 8.76004 9.21333C8.76004 9.61333 8.44004 9.83333 8.00004 9.83333Z" fill="#292D32"/>
</svg>