<svg xmlns="http://www.w3.org/2000/svg" width="128" height="128" viewBox="0 0 128 128" fill="none">
  <path d="M11.78 60.28C11.285 60.3298 10.8262 60.5621 10.4934 60.9319C10.1605 61.3017 9.97751 61.7825 9.98 62.28C9.768 62.68 9.092 62.6559 9.092 63.1599V69.512C9.092 70.824 10.124 71.64 10.908 72.592V74.0598C10.908 74.8518 10.952 74.8881 10.952 74.3801C10.952 74.2441 10.908 74.4518 10.908 74.9958V77.6838C10.908 80.6998 12.308 83.2361 14.256 85.2161C14.108 85.6561 14.032 86.0798 13.508 86.4758C12.652 87.1158 10.984 87.7558 9.04 88.6238H9.084C7.136 89.4358 4.88 90.532 3.024 92.512L2.976 92.5598C1.152 94.6158 0 97.5601 0 101.36V102.288C0 102.818 0.210714 103.327 0.585786 103.702C0.960859 104.077 1.46957 104.288 2 104.288H42C42.5304 104.288 43.0391 104.077 43.4142 103.702C43.7893 103.327 44 102.818 44 102.288V101.356C44 97.6522 42.832 94.728 40.928 92.7C39.116 90.764 36.904 89.7159 34.968 88.9119H34.96C33.1 88.1359 31.54 87.4798 30.632 86.8118C30.064 86.3558 29.94 85.848 29.792 85.2C31.716 83.216 33.092 80.6718 33.092 77.6838V69.512C33.092 65.432 29.772 62.0359 25.672 62.0359H15.024C15.148 62.0359 14.444 61.9362 14.296 61.8762L13.484 61.9158C13.3 61.8238 13.036 61.628 13.42 62.052L13.548 62.4519C13.396 62.1719 13.908 62.5522 13.908 63.1482C13.908 62.6722 14.196 62.6998 13.968 62.2878V62.2239L13.936 62.2639C13.9237 61.7473 13.7119 61.2557 13.345 60.8918C12.9781 60.528 12.4847 60.3199 11.968 60.3118C11.92 60.3118 11.928 60.2722 11.884 60.2722C11.828 60.2722 11.836 60.3118 11.78 60.3118V60.28ZM9.968 62.3401C9.98608 62.7182 10.109 63.084 10.3231 63.3962C10.5371 63.7085 10.8338 63.9549 11.18 64.1082C11.192 64.1082 11.228 63.4441 11.228 63.4441L10.024 62.7239L9.968 62.324V62.3401ZM13.092 65.6282C13.792 65.8762 14.396 66.0359 15.024 66.0359H25.672C27.564 66.0359 29.092 67.5959 29.092 69.5159V77.6838C29.092 79.9998 28.012 81.9801 26.312 83.2761C26.0435 83.4826 25.8317 83.7536 25.6967 84.0642C25.5617 84.3748 25.5078 84.7148 25.54 85.052C25.736 87.208 26.836 88.8961 28.14 89.9441L28.188 89.9841C29.76 91.1641 31.588 91.8402 33.428 92.6082C35.216 93.3522 36.824 94.1678 38.008 95.4358C38.992 96.4838 39.416 98.2318 39.64 100.288H4.344C4.564 98.1278 5.012 96.3078 5.976 95.2078C7.216 93.8998 8.872 93.036 10.624 92.304L10.664 92.2639C12.436 91.4759 14.292 90.8798 15.916 89.6638C17.22 88.6798 18.288 87.1118 18.556 85.1838C18.6048 84.8282 18.5571 84.4663 18.4177 84.1355C18.2784 83.8047 18.0526 83.5174 17.764 83.304C16.8733 82.6601 16.1493 81.8127 15.6525 80.8323C15.1558 79.8519 14.9005 78.7673 14.908 77.6682V74.9802C14.908 75.1162 14.952 74.908 14.952 74.364C14.952 73.632 14.908 73.4522 14.908 74.0442V72.552C14.9078 72.198 14.8136 71.8504 14.6351 71.5447C14.4566 71.239 14.2002 70.9859 13.892 70.8118C13.6519 70.6856 13.4506 70.4967 13.3096 70.2649C13.1687 70.0331 13.0935 69.7671 13.092 69.4958V65.616V65.6282Z" fill="#2B4255"/>
  <path d="M66 52.2878C65.4696 52.2878 64.9609 52.4987 64.5858 52.8738C64.2107 53.2489 64 53.7574 64 54.2878V102.288C64 102.818 64.2107 103.327 64.5858 103.702C64.9609 104.077 65.4696 104.288 66 104.288H74C74.5304 104.288 75.0391 104.077 75.4142 103.702C75.7893 103.327 76 102.818 76 102.288V54.2878C76 53.7574 75.7893 53.2489 75.4142 52.8738C75.0391 52.4987 74.5304 52.2878 74 52.2878H66ZM68 56.2878H72V100.288H68V56.2878Z" fill="#25B39E"/>
  <path d="M58 64.2878C57.4696 64.2878 56.9609 64.4987 56.5858 64.8738C56.2107 65.2489 56 65.7574 56 66.2878V102.288C56 102.818 56.2107 103.327 56.5858 103.702C56.9609 104.077 57.4696 104.288 58 104.288H66C66.5304 104.288 67.0391 104.077 67.4142 103.702C67.7893 103.327 68 102.818 68 102.288V66.2878C68 65.7574 67.7893 65.2489 67.4142 64.8738C67.0391 64.4987 66.5304 64.2878 66 64.2878H58ZM60 68.2878H64V100.288H60V68.2878Z" fill="#F05542"/>
  <path fill-rule="evenodd" clip-rule="evenodd" d="M48 23.7161V103.716H52V23.7161H48Z" fill="#576D7E"/>
  <path d="M90 72.2878C89.4696 72.2878 88.9609 72.4987 88.5858 72.8738C88.2107 73.2489 88 73.7574 88 74.2878V102.288C88 102.818 88.2107 103.327 88.5858 103.702C88.9609 104.077 89.4696 104.288 90 104.288H98C98.5304 104.288 99.0391 104.077 99.4142 103.702C99.7893 103.327 100 102.818 100 102.288V74.2878C100 73.7574 99.7893 73.2489 99.4142 72.8738C99.0391 72.4987 98.5304 72.2878 98 72.2878H90ZM92 76.2878H96V100.288H92V76.2878Z" fill="#25B39E"/>
  <path d="M82 80.2878C81.4696 80.2878 80.9609 80.4987 80.5858 80.8738C80.2107 81.2489 80 81.7574 80 82.2878V102.288C80 102.818 80.2107 103.327 80.5858 103.702C80.9609 104.077 81.4696 104.288 82 104.288H90C90.5304 104.288 91.0391 104.077 91.4142 103.702C91.7893 103.327 92 102.818 92 102.288V82.2878C92 81.7574 91.7893 81.2489 91.4142 80.8738C91.0391 80.4987 90.5304 80.2878 90 80.2878H82ZM84 84.2878H88V100.288H84V84.2878Z" fill="#F05542"/>
  <path d="M114 28.2878C113.47 28.2878 112.961 28.4987 112.586 28.8738C112.211 29.2489 112 29.7574 112 30.2878V102.288C112 102.818 112.211 103.327 112.586 103.702C112.961 104.077 113.47 104.288 114 104.288H122C122.53 104.288 123.039 104.077 123.414 103.702C123.789 103.327 124 102.818 124 102.288V30.2878C124 29.7574 123.789 29.2489 123.414 28.8738C123.039 28.4987 122.53 28.2878 122 28.2878H114ZM116 32.2878H120V100.288H116V32.2878Z" fill="#25B39E"/>
  <path d="M106 32.2878C105.47 32.2878 104.961 32.4987 104.586 32.8738C104.211 33.2489 104 33.7574 104 34.2878V102.288C104 102.818 104.211 103.327 104.586 103.702C104.961 104.077 105.47 104.288 106 104.288H114C114.53 104.288 115.039 104.077 115.414 103.702C115.789 103.327 116 102.818 116 102.288V34.2878C116 33.7574 115.789 33.2489 115.414 32.8738C115.039 32.4987 114.53 32.2878 114 32.2878H106ZM108 36.2878H112V100.288H108V36.2878Z" fill="#F05542"/>
  <path fill-rule="evenodd" clip-rule="evenodd" d="M48 100.288V104.288H128V100.288H48Z" fill="#576D7E"/>
</svg>