<svg xmlns="http://www.w3.org/2000/svg" width="16" height="17" viewBox="0 0 16 17" fill="none">
  <path d="M10.3866 8.49995C10.3866 9.81995 9.31995 10.8866 7.99995 10.8866C6.67995 10.8866 5.61328 9.81995 5.61328 8.49995C5.61328 7.17995 6.67995 6.11328 7.99995 6.11328C9.31995 6.11328 10.3866 7.17995 10.3866 8.49995Z" stroke="#292D32" stroke-width="1.5" stroke-linecap="round" stroke-linejoin="round"/>
  <path d="M8.00002 14.0133C10.3534 14.0133 12.5467 12.6266 14.0734 10.2266C14.6734 9.28665 14.6734 7.70665 14.0734 6.76665C12.5467 4.36665 10.3534 2.97998 8.00002 2.97998C5.64668 2.97998 3.45335 4.36665 1.92668 6.76665C1.32668 7.70665 1.32668 9.28665 1.92668 10.2266C3.45335 12.6266 5.64668 14.0133 8.00002 14.0133Z" stroke="#292D32" stroke-width="1.5" stroke-linecap="round" stroke-linejoin="round"/>
</svg>