<svg xmlns="http://www.w3.org/2000/svg" width="32" height="32" viewBox="0 0 32 32" fill="none">
  <path d="M21.333 29.7598C20.8797 29.7598 20.4397 29.6265 20.053 29.3732L14.373 25.5865H11.853C11.5464 25.5865 11.253 25.4399 11.0663 25.1999C10.8797 24.9465 10.813 24.6265 10.893 24.3332C10.973 24.0132 11.013 23.6932 11.013 23.3465C11.013 22.2798 10.613 21.2532 9.89303 20.4532C9.07969 19.5332 7.91969 19.0132 6.67969 19.0132C5.49302 19.0132 4.38633 19.4798 3.573 20.3198C3.31966 20.5865 2.93301 20.6932 2.58634 20.5865C2.23968 20.4798 1.95968 20.1998 1.87968 19.8398C1.74635 19.2532 1.67969 18.6132 1.67969 17.9198V9.91984C1.67969 5.33317 4.75969 2.25317 9.34635 2.25317H22.6797C27.2664 2.25317 30.3464 5.33317 30.3464 9.91984V17.9198C30.3464 20.1465 29.613 22.0665 28.213 23.4665C27.0397 24.6398 25.4797 25.3465 23.6797 25.5332V27.4265C23.6797 28.2932 23.1997 29.0798 22.4397 29.4932C22.0797 29.6665 21.7063 29.7598 21.333 29.7598ZM12.9997 23.5732H14.6663C14.8663 23.5732 15.053 23.6265 15.2264 23.7465L21.1597 27.7065C21.293 27.7999 21.4263 27.7598 21.493 27.7198C21.5597 27.6798 21.6797 27.5998 21.6797 27.4132V24.5732C21.6797 24.0265 22.133 23.5732 22.6797 23.5732C24.373 23.5732 25.7997 23.0399 26.7997 22.0399C27.813 21.0265 28.3464 19.5998 28.3464 17.9065V9.90649C28.3464 6.46649 26.1197 4.23983 22.6797 4.23983H9.34635C5.90635 4.23983 3.67969 6.46649 3.67969 9.90649V17.7465C4.58635 17.2532 5.61302 16.9998 6.67969 16.9998C8.49302 16.9998 10.213 17.7732 11.3864 19.1065C12.4264 20.2665 13.013 21.7732 13.013 23.3332C12.9997 23.4132 12.9997 23.4932 12.9997 23.5732Z" fill="#4D94FF"/>
  <path d="M6.66671 29.6667C5.09337 29.6667 3.60002 29.08 2.44002 28.0267C1.97336 27.6267 1.56003 27.1333 1.24003 26.5867C0.653364 25.6267 0.333374 24.4933 0.333374 23.3333C0.333374 21.6667 0.973369 20.1067 2.12004 18.92C3.32004 17.68 4.93337 17 6.66671 17C8.48004 17 10.2 17.7734 11.3734 19.1067C12.4134 20.2667 13 21.7733 13 23.3333C13 23.84 12.9334 24.3467 12.8 24.8267C12.6667 25.4267 12.4134 26.0533 12.0667 26.6C10.96 28.4933 8.88004 29.6667 6.66671 29.6667ZM6.66671 19C5.48004 19 4.37339 19.4666 3.56006 20.3066C2.77339 21.12 2.33337 22.1867 2.33337 23.3333C2.33337 24.12 2.54671 24.8933 2.96004 25.56C3.17338 25.9333 3.45336 26.2666 3.77336 26.5466C4.57336 27.28 5.60004 27.68 6.66671 27.68C8.20004 27.68 9.58671 26.8933 10.3734 25.5867C10.6134 25.2133 10.7734 24.8 10.8667 24.3734C10.96 24.0267 11 23.6933 11 23.3467C11 22.28 10.6 21.2534 9.88005 20.4534C9.08005 19.52 7.90671 19 6.66671 19Z" fill="#4D94FF"/>
  <path d="M8.65328 24.3066H4.66663C4.11996 24.3066 3.66663 23.8533 3.66663 23.3066C3.66663 22.76 4.11996 22.3066 4.66663 22.3066H8.65328C9.19995 22.3066 9.65328 22.76 9.65328 23.3066C9.65328 23.8533 9.21328 24.3066 8.65328 24.3066Z" fill="#4D94FF"/>
  <path d="M6.66663 26.3468C6.11996 26.3468 5.66663 25.8934 5.66663 25.3468V21.3601C5.66663 20.8134 6.11996 20.3601 6.66663 20.3601C7.21329 20.3601 7.66663 20.8134 7.66663 21.3601V25.3468C7.66663 25.9068 7.21329 26.3468 6.66663 26.3468Z" fill="#4D94FF"/>
  <path d="M20.6667 15H11.3334C10.7867 15 10.3334 14.5467 10.3334 14C10.3334 13.4533 10.7867 13 11.3334 13H20.6667C21.2134 13 21.6667 13.4533 21.6667 14C21.6667 14.5467 21.2134 15 20.6667 15Z" fill="#4D94FF"/>
</svg>