<svg xmlns="http://www.w3.org/2000/svg" width="128" height="128" viewBox="0 0 128 128" fill="none">
  <path d="M87.772 28.012C87.2811 28.0613 86.8257 28.2903 86.4934 28.655C86.1612 29.0198 85.9754 29.4946 85.972 29.988V30.0281C85.692 30.4921 84.916 30.4842 84.916 31.0842V36.7561C84.916 37.2865 85.1267 37.7951 85.5018 38.1702C85.8769 38.5452 86.3856 38.7561 86.916 38.7561H89.252C90.7344 38.7667 92.1522 39.3645 93.1944 40.4187C94.2367 41.4729 94.8184 42.8977 94.812 44.3801V55.7639C94.812 59.2359 93.184 62.2398 90.632 64.1838C90.3632 64.3886 90.1507 64.6584 90.0143 64.9675C89.8779 65.2767 89.8221 65.6153 89.852 65.9519C90.108 68.7799 91.48 70.8559 93.188 72.2239L93.236 72.2639C95.296 73.8079 97.788 74.756 100.356 75.824H100.368C102.628 76.768 104.768 77.8641 106.488 79.4841C106.859 79.8352 107.349 80.0311 107.86 80.032H124C124.53 80.032 125.039 79.8211 125.414 79.446C125.789 79.071 126 78.5624 126 78.032V76.9119C126 72.5479 124.632 69.164 122.424 66.804C120.308 64.544 117.712 63.3201 115.408 62.3601H115.4C113.16 61.4241 111.264 60.6199 110.108 59.7639C109.332 59.1399 109.096 58.468 108.9 57.468C111.252 55.14 112.916 52.0801 112.916 48.5081V38.7C112.916 34.02 109.096 30.1321 104.396 30.1321H91.628C91.716 30.1321 89.976 30.0118 89.692 29.8918L90.844 30.156C90.612 30.036 89.236 29.6438 89.572 30.0198L89.728 29.9802C86.768 29.9802 91.088 30.44 91.088 31.072C91.088 30.504 90.272 30.5201 89.972 30.0481H89.964C89.964 30.0481 89.948 30.0481 89.94 30.0081C89.9359 29.4859 89.7277 28.9862 89.36 28.6155C88.9923 28.2448 88.4941 28.0325 87.972 28.0242H87.776L87.772 28.012ZM88.916 33.5198C88.968 33.5598 89.028 33.5802 89.084 33.6082C90.04 33.9882 90.796 34.1282 91.624 34.1282H104.4C106.892 34.1282 108.916 36.18 108.916 38.696V48.5002C108.916 51.4042 107.556 53.9118 105.42 55.5398C105.152 55.7442 104.94 56.0131 104.803 56.3215C104.667 56.6299 104.611 56.968 104.64 57.304C104.868 59.804 106.104 61.6961 107.616 62.9041L107.664 62.9441C109.488 64.3121 111.652 65.1241 113.86 66.0481H113.868C116.028 66.9441 118.016 67.948 119.5 69.532C120.828 70.948 121.5 73.1602 121.7 76.0242H108.328C106.39 74.4189 104.227 73.1063 101.908 72.1282H101.9C99.3 71.0442 97.072 70.108 95.68 69.072C94.696 68.28 94.348 67.4438 94.108 66.1038C96.88 63.4518 98.812 59.904 98.812 55.76V44.3762C98.812 39.1202 94.524 34.7522 89.252 34.7522H88.916V33.5242V33.5198ZM15.96 28.0442C15.908 28.0442 15.92 28.1359 15.868 28.1399C15.816 28.1399 15.816 28.048 15.764 28.052C15.2703 28.1016 14.8127 28.3328 14.4801 28.7009C14.1474 29.0691 13.9635 29.548 13.964 30.0442C13.684 30.5082 12.908 30.4959 12.908 31.0999V38.7239C12.908 40.2919 14.096 41.3119 15.08 42.4119V44.176C15.08 44.992 15.14 45.052 15.14 44.552C15.14 44.456 15.08 44.7121 15.08 45.2961V48.5198C15.08 52.1318 16.78 55.1802 19.164 57.5002C18.956 58.2482 18.792 58.8279 18.044 59.3879C16.952 60.2119 14.948 60.972 12.648 61.988C10.324 62.96 7.68 64.2518 5.516 66.5598L5.476 66.6082C3.356 69.0162 2 72.4359 2 76.9119V78.032C2 78.5624 2.21071 79.071 2.58579 79.446C2.96086 79.8211 3.46957 80.032 4 80.032H19.744C20.0078 80.0325 20.269 79.9806 20.5127 79.8796C20.7564 79.7787 20.9778 79.6309 21.164 79.4441C22.988 77.6041 25.324 76.3922 27.712 75.3962L27.752 75.3562C30.256 74.2442 32.796 73.3962 34.908 71.8162C36.616 70.5322 37.932 68.6159 38.28 66.0959C38.3278 65.742 38.2799 65.3817 38.1413 65.0525C38.0027 64.7233 37.7785 64.4371 37.492 64.2239C36.153 63.2535 35.0642 61.9783 34.3158 60.5037C33.5673 59.0291 33.1807 57.3975 33.188 55.7439V51.9958C33.2499 51.7136 33.2728 51.4244 33.256 51.136C33.256 50.368 33.188 50.152 33.188 50.696V48.616C33.1879 48.2634 33.0946 47.9174 32.9176 47.6125C32.7406 47.3077 32.4861 47.055 32.18 46.8801C31.7253 46.6337 31.3449 46.2701 31.0783 45.8269C30.8117 45.3838 30.6687 44.8772 30.664 44.3601V37.7761C30.804 37.8361 31.044 38.0439 31.148 38.0959C31.2 38.1359 31.252 38.1482 31.308 38.1682C32.368 38.6002 33.26 38.7478 34.14 38.7478H38.572C38.8852 38.747 39.1939 38.6729 39.4731 38.531C39.7524 38.3891 39.9943 38.1835 40.1796 37.9309C40.3649 37.6783 40.4882 37.3859 40.5397 37.0769C40.5912 36.7679 40.5693 36.4511 40.476 36.1521C39.396 32.7121 36.196 30.136 32.392 30.136H19.624C19.712 30.136 18.844 30.02 18.564 29.908L18.744 29.988C18.48 29.848 18.308 29.6281 18.672 30.0281L18.952 30.428C18.808 30.16 19.08 30.4282 19.08 31.0842C19.08 29.4922 17.592 28.2439 15.96 28.2239V28.0359V28.0442ZM16.908 33.5598C16.964 33.5998 17.02 33.6159 17.08 33.6399C18.04 34.0239 18.796 34.156 19.624 34.156H27.9C27.8982 34.2053 27.8982 34.2546 27.9 34.304C27.544 34.824 26.664 34.8359 26.664 35.5359V44.3801C26.664 46.2041 28.004 47.4239 29.184 48.6599V50.7161C29.184 51.5401 29.256 51.62 29.256 51.156C29.1921 51.4379 29.1692 51.7274 29.188 52.0159V55.7639C29.188 59.9519 31.172 63.4919 33.976 66.1399C33.716 67.1879 33.452 67.9239 32.5 68.6399C31.164 69.6399 28.82 70.5239 26.164 71.7039C23.896 72.6479 21.464 74.104 19.264 76.032H6.288C6.488 73.04 7.168 70.7522 8.468 69.2722C10.02 67.6322 12.068 66.5722 14.196 65.6882L14.236 65.6482C16.38 64.6962 18.58 63.9681 20.452 62.5681C21.964 61.4321 23.16 59.6882 23.468 57.4602C23.5165 57.1056 23.469 56.7443 23.3304 56.4143C23.1918 56.0843 22.9672 55.7978 22.68 55.5842C20.48 53.9442 19.08 51.4601 19.08 48.5042V45.28C19.08 45.368 19.14 45.1199 19.14 44.5359C19.14 43.7759 19.08 43.5879 19.08 44.1599V42.364C19.0799 42.0115 18.9866 41.6655 18.8096 41.3606C18.6326 41.0557 18.3781 40.803 18.072 40.6282C17.7235 40.4421 17.4314 40.1657 17.2266 39.8279C17.0218 39.49 16.9117 39.1028 16.908 38.7078V33.5481V33.5598ZM32.664 34.364C32.736 34.364 32.752 34.4639 32.824 34.4719H32.8H32.832C32.856 34.4719 32.864 34.512 32.888 34.512C32.768 34.432 32.54 34.2479 32.768 34.4719L33.08 34.9001C32.932 34.6321 33.172 34.9558 33.184 35.4958C33.184 35.0518 32.84 34.7318 32.66 34.3318L32.664 34.364Z" fill="#25B39E"/>
  <path d="M29.696 32.312C29.2037 32.3604 28.7468 32.5898 28.4136 32.9555C28.0804 33.3212 27.8946 33.7977 27.892 34.2924C27.54 34.8124 26.664 34.82 26.664 35.52V44.3642C26.664 46.1842 28.004 47.404 29.184 48.644V50.7001C29.184 51.5281 29.256 51.6201 29.256 51.1401C29.1926 51.4207 29.1697 51.7089 29.188 51.996V55.748C29.188 59.936 31.172 63.476 33.976 66.124C33.72 67.164 33.448 67.9042 32.5 68.6162C31.164 69.6162 28.82 70.508 26.164 71.684C23.484 72.804 20.456 74.2841 17.992 76.9121L17.952 76.9604C15.544 79.7204 14 83.5964 14 88.7324V90.0283C14 90.5587 14.2107 91.0673 14.5858 91.4423C14.9609 91.8174 15.4696 92.0283 16 92.0283H30.336C30.6977 92.0288 31.0527 91.9313 31.3634 91.746C31.674 91.5608 31.9286 91.2945 32.1 90.976C32.664 89.92 33.272 88.9881 33.94 88.2241C36.42 85.5841 39.652 83.9321 42.908 82.5761L42.948 82.5361C46.208 81.0881 49.468 79.9883 52.088 78.0283C53.2181 77.2053 54.1677 76.1594 54.8783 74.9555C55.589 73.7516 56.0456 72.4153 56.22 71.0283C56.2681 70.6733 56.22 70.3119 56.0806 69.9819C55.9413 69.6519 55.7159 69.3654 55.428 69.1523C51.892 66.5243 49.628 62.4761 49.628 57.7241V52.8842C49.628 52.8442 49.72 52.4843 49.72 51.7763C49.72 50.9443 49.624 50.6763 49.624 51.2163V48.5122C49.6239 48.1596 49.5306 47.8136 49.3536 47.5087C49.1766 47.2039 48.9221 46.9512 48.616 46.7763C47.9411 46.4089 47.3767 45.8675 46.9814 45.2084C46.5862 44.5494 46.3744 43.7967 46.368 43.0283V36.7402C46.368 36.2097 46.1573 35.7012 45.7822 35.3261C45.4071 34.951 44.8984 34.7402 44.368 34.7402H34.14C34.164 34.7402 33.18 34.6041 32.796 34.4521L32.956 34.5161C32.652 34.3641 32.404 34.104 32.772 34.476L33.088 34.9042C32.932 34.6242 33.188 34.9444 33.188 35.5004C33.188 34.2724 32.32 33.3641 31.236 32.8281C30.8724 32.4836 30.3928 32.2881 29.892 32.2802C29.86 32.2802 29.868 32.3324 29.836 32.3364C29.784 32.3364 29.748 32.2762 29.696 32.2802V32.312ZM30.664 37.7802C30.808 37.8442 31.052 38.0563 31.156 38.1083C31.208 38.1483 31.26 38.1562 31.316 38.1762C32.368 38.6002 33.252 38.7524 34.14 38.7524H42.368V43.04C42.368 45.612 43.744 47.7521 45.624 49.2841V51.228C45.624 52.12 45.72 52.232 45.72 51.788C45.72 51.828 45.624 52.1923 45.624 52.9003V57.7402C45.624 63.1482 48.208 67.7364 51.916 71.0644C51.556 72.7444 51.056 73.8043 49.676 74.8403C47.84 76.2163 44.776 77.3603 41.356 78.8803C37.916 80.3123 34.096 82.192 31 85.496L30.96 85.5444C30.296 86.3004 29.804 87.1764 29.288 88.0244H18.1C18.24 84.1564 19.292 81.5283 20.928 79.6523C22.78 77.6843 25.216 76.4364 27.712 75.3964L27.752 75.3564C30.256 74.2444 32.796 73.3964 34.908 71.8164C36.616 70.5284 37.932 68.6161 38.28 66.0961C38.3285 65.7415 38.281 65.3807 38.1424 65.0507C38.0038 64.7208 37.7792 64.4337 37.492 64.2202C36.1535 63.2502 35.0651 61.9758 34.3167 60.5019C33.5683 59.028 33.1814 57.3971 33.188 55.7441V51.996C33.2499 51.7138 33.2728 51.4246 33.256 51.1362C33.256 50.3562 33.188 50.1442 33.188 50.6962V48.6123C33.1879 48.2597 33.0946 47.9132 32.9176 47.6083C32.7406 47.3035 32.4861 47.0513 32.18 46.8764C31.7265 46.6307 31.3469 46.2682 31.0803 45.8266C30.8138 45.385 30.6701 44.88 30.664 44.3642V37.7641V37.7802ZM78.056 34.7641C77.6753 34.7687 77.3039 34.8818 76.9853 35.0903C76.6667 35.2987 76.4142 35.5939 76.2575 35.9409C76.1009 36.2878 76.0465 36.6724 76.1007 37.0493C76.155 37.4261 76.3158 37.7797 76.564 38.0683L76.516 38.0283C77.676 39.4203 78.376 41.1441 78.376 43.0361V57.7324C78.3835 59.932 77.8784 62.1027 76.9008 64.0732C75.9232 66.0436 74.5 67.7597 72.744 69.0844C72.4751 69.2884 72.2622 69.5567 72.1251 69.8652C71.988 70.1736 71.9312 70.5118 71.96 70.8481C72.28 74.3681 73.92 76.848 76.056 78.56L76.108 78.6C78.672 80.52 81.852 81.7443 85.18 83.1323H85.188C88.46 84.4923 91.592 86.052 93.976 88.6C94.624 89.292 95.216 90.116 95.756 91.04C95.9337 91.3397 96.1866 91.5878 96.4897 91.7597C96.7928 91.9316 97.1356 92.0213 97.484 92.02H112C112.53 92.02 113.039 91.8096 113.414 91.4345C113.789 91.0594 114 90.5504 114 90.02V88.7241C114 83.7201 112.44 79.884 109.928 77.208C107.528 74.64 104.576 73.232 101.908 72.124H101.9C99.3 71.044 97.072 70.1043 95.68 69.0683C94.696 68.2763 94.348 67.44 94.108 66.1C96.88 63.448 98.812 59.9003 98.812 55.7563V44.372C98.812 39.116 94.524 34.748 89.252 34.748H78.056V34.7641ZM80.796 38.7641H89.252C90.7344 38.7747 92.1522 39.3729 93.1944 40.4272C94.2367 41.4814 94.8184 42.9057 94.812 44.3881V55.7724C94.812 59.2444 93.184 62.2483 90.632 64.1923C90.3632 64.3971 90.1507 64.6664 90.0143 64.9755C89.8779 65.2847 89.8221 65.6238 89.852 65.9604C90.108 68.7844 91.48 70.8644 93.188 72.2324L93.236 72.2724C95.296 73.8164 97.788 74.76 100.356 75.832H100.368C102.88 76.88 105.232 78.0604 107.008 79.9604C108.696 81.7604 109.744 84.3 109.888 88.04H98.488C97.988 87.296 97.512 86.5363 96.9 85.8803C93.888 82.6603 90.152 80.8801 86.728 79.4521H86.72C83.372 78.0521 80.444 76.848 78.548 75.436C77.132 74.3 76.536 73.088 76.22 71.02C79.864 67.684 82.376 63.092 82.376 57.748V43.0522C82.376 41.4122 81.408 40.1761 80.796 38.7641Z" fill="#F05542"/>
  <path d="M45.752 28.032C45.2913 28.0785 44.8606 28.282 44.532 28.6082C43.316 29.1682 42.368 30.156 42.368 31.616V43.052C42.368 45.624 43.744 47.7602 45.624 49.2922V51.24C45.624 52.116 45.72 52.228 45.72 51.8C45.72 51.84 45.624 52.2079 45.624 52.9119V57.7522C45.624 63.1642 48.208 67.7401 51.916 71.0681C51.556 72.7521 51.06 73.8202 49.676 74.8562C47.84 76.2362 44.784 77.3719 41.368 78.8879C37.928 80.3239 34.104 82.2001 31.008 85.5042L30.96 85.552C27.94 88.992 26 93.84 26 100.364V102.036C26 102.566 26.2107 103.075 26.5858 103.45C26.9609 103.826 27.4696 104.036 28 104.036H100C100.53 104.036 101.039 103.826 101.414 103.45C101.789 103.075 102 102.566 102 102.036V100.364C102 94.012 100.04 89.2281 96.9 85.8801C93.884 82.6561 90.144 80.8682 86.72 79.4402C83.368 78.0442 80.444 76.8438 78.548 75.4358C77.136 74.2998 76.536 73.0838 76.22 71.0198C79.864 67.6838 82.376 63.1001 82.376 57.7561V43.052C82.376 36.572 77.096 31.1921 70.6 31.1921H51.44C51.32 31.1921 50.072 31.012 49.492 30.78C49.34 30.68 49.076 30.4879 49.256 30.6799L49.576 31.116C49.388 30.76 49.624 31.0759 49.624 31.5999C49.624 30.1679 48.576 29.1201 47.28 28.5681C46.9154 28.2327 46.4394 28.0443 45.944 28.0398C45.916 28.0398 45.896 28.0798 45.864 28.0798C45.824 28.0798 45.796 28.0318 45.752 28.0398V28.032ZM43.944 30.052L43.968 30.28C44.0305 30.7272 44.2395 31.1407 44.5623 31.4563C44.8852 31.7719 45.3036 31.9719 45.752 32.0242L43.968 29.9602L43.944 30.052ZM46.368 33.4441C47.028 34.1361 47.464 34.2282 47.848 34.4202C47.896 34.4602 47.944 34.4601 47.992 34.4841C49.272 35.0041 50.44 35.196 51.436 35.196H70.6C74.892 35.196 78.376 38.736 78.376 43.052V57.7561C78.376 62.4281 76.176 66.4799 72.744 69.0999C72.4751 69.3038 72.2622 69.5727 72.1251 69.8811C71.988 70.1895 71.9312 70.5277 71.96 70.864C72.28 74.384 73.92 76.8679 76.056 78.5759L76.1 78.616C78.668 80.536 81.852 81.7519 85.18 83.1399C88.452 84.5039 91.592 86.0679 93.98 88.6199C96.364 91.1559 97.872 94.6998 97.944 100.04H30.048C30.116 94.5198 31.644 90.8678 33.952 88.2278C36.432 85.5878 39.66 83.9318 42.908 82.5798H42.948C46.208 81.1278 49.468 80.032 52.088 78.072C54.22 76.472 55.78 74.196 56.208 71.072C56.2577 70.7172 56.2112 70.3554 56.0733 70.0247C55.9353 69.6939 55.7111 69.4065 55.424 69.1921C51.884 66.5641 49.624 62.5282 49.624 57.7722V52.9319C49.624 52.8919 49.72 52.5241 49.72 51.8201C49.72 51.0001 49.624 50.732 49.624 51.26V48.5642C49.6253 48.2103 49.5327 47.8623 49.3556 47.5559C49.1785 47.2495 48.9233 46.9956 48.616 46.8201C47.9413 46.4523 47.3772 45.9107 46.982 45.2517C46.5867 44.5928 46.3748 43.8404 46.368 43.072V33.4602V33.4441Z" fill="#2B4255"/>
</svg>