<svg xmlns="http://www.w3.org/2000/svg" width="32" height="32" viewBox="0 0 32 32" fill="none">
<path d="M24.1333 23.6667H7.86666C4.77333 23.6667 3 21.8934 3 18.8001V2.66675C3 2.12008 3.45333 1.66675 4 1.66675H28C28.5467 1.66675 29 2.12008 29 2.66675V18.8001C29 21.8934 27.2267 23.6667 24.1333 23.6667ZM5 3.66675V18.8001C5 20.7868 5.87999 21.6667 7.86666 21.6667H24.12C26.1067 21.6667 26.9867 20.7868 26.9867 18.8001V3.66675H5Z" fill="#4D94FF"/>
<path d="M29.3333 3.66675H2.66663C2.11996 3.66675 1.66663 3.21341 1.66663 2.66675C1.66663 2.12008 2.11996 1.66675 2.66663 1.66675H29.3333C29.88 1.66675 30.3333 2.12008 30.3333 2.66675C30.3333 3.21341 29.88 3.66675 29.3333 3.66675Z" fill="#4D94FF"/>
<path d="M10.667 30.3334C10.2937 30.3334 9.947 30.1334 9.77367 29.7867C9.52034 29.2934 9.72037 28.6934 10.227 28.4401L15.0004 26.0534V22.6667C15.0004 22.1201 15.4537 21.6667 16.0004 21.6667C16.547 21.6667 17.0004 22.1201 17.0004 22.6667V26.6667C17.0004 27.0401 16.787 27.3868 16.4403 27.5601L11.107 30.2268C10.9737 30.2934 10.8137 30.3334 10.667 30.3334Z" fill="#4D94FF"/>
<path d="M21.3333 30.3334C21.1866 30.3334 21.0267 30.2934 20.8933 30.2267L15.56 27.5601C15.0667 27.3067 14.8666 26.7067 15.1066 26.2134C15.36 25.7201 15.96 25.5201 16.4533 25.7601L21.7866 28.4267C22.28 28.6801 22.48 29.28 22.24 29.7734C22.0533 30.1334 21.6933 30.3334 21.3333 30.3334Z" fill="#4D94FF"/>
<path d="M9.99994 15.6667C9.71994 15.6667 9.42663 15.5467 9.22663 15.3067C8.86663 14.88 8.93326 14.2533 9.35993 13.8933L13.56 10.3867C13.9466 10.0667 14.4399 9.93333 14.9066 10.0133C15.3866 10.0933 15.8 10.3866 16.0533 10.8133L17.4533 13.1466L21.3599 9.89334C21.7866 9.54667 22.4133 9.59997 22.7733 10.0266C23.1333 10.4533 23.0666 11.08 22.64 11.44L18.4399 14.9466C18.0533 15.2666 17.56 15.4 17.0933 15.32C16.6133 15.24 16.1999 14.9467 15.9466 14.52L14.5466 12.1867L10.64 15.44C10.4533 15.5866 10.2266 15.6667 9.99994 15.6667Z" fill="#4D94FF"/>
</svg>