<svg xmlns="http://www.w3.org/2000/svg" width="128" height="128" viewBox="0 0 128 128" fill="none">
  <path d="M77.312 92.9604C77.0845 92.9641 76.8596 93.0087 76.648 93.0923C74.4369 93.9613 72.1277 94.5564 69.772 94.8642C69.2919 94.9272 68.851 95.162 68.531 95.5254C68.211 95.8888 68.0337 96.3561 68.032 96.8403V125.98C68.0315 126.254 68.087 126.524 68.1952 126.775C68.3033 127.026 68.4619 127.252 68.6609 127.44C68.86 127.627 69.0953 127.772 69.3525 127.865C69.6096 127.958 69.8831 127.997 70.156 127.98C77.8241 127.504 85.3376 125.61 92.316 122.396C92.5656 122.281 92.7888 122.115 92.9716 121.91C93.1544 121.705 93.2929 121.464 93.3785 121.203C93.4641 120.942 93.4949 120.666 93.469 120.392C93.4431 120.118 93.3611 119.853 93.228 119.612L79.132 93.9883C78.9535 93.665 78.6889 93.3975 78.3677 93.2153C78.0465 93.0332 77.6811 92.9433 77.312 92.956V92.9604ZM76.368 97.2641L88.492 119.304C83.2383 121.486 77.6923 122.884 72.032 123.452V98.3803C73.5011 98.1062 74.9498 97.7358 76.368 97.2641Z" fill="#25B39E"/>
  <path d="M12.508 36.3717C12.1606 36.3914 11.8244 36.5016 11.5326 36.691C11.2408 36.8804 11.0034 37.1425 10.844 37.4517C6.91718 45.0264 4.5903 53.3279 4.00796 61.8399C3.98877 62.1134 4.02601 62.3881 4.11739 62.6466C4.20876 62.9051 4.35231 63.1417 4.53912 63.3424C4.72593 63.5431 4.95201 63.7034 5.20331 63.8131C5.45462 63.9227 5.72578 63.9796 5.99996 63.9801H35.252C35.7375 63.9803 36.2066 63.8036 36.5717 63.4835C36.9367 63.1633 37.1728 62.7213 37.236 62.2398C37.596 59.5038 38.34 56.8356 39.452 54.3116C39.6484 53.8666 39.676 53.3653 39.5295 52.9014C39.3829 52.4376 39.0724 52.0435 38.656 51.7921L13.656 36.6519C13.3103 36.4449 12.9101 36.347 12.508 36.3717ZM13.6 41.2999L35.304 54.4439C34.624 56.2439 34.104 58.0921 33.748 59.9801H8.35996C9.04641 53.5035 10.8178 47.1885 13.6 41.2999Z" fill="#4BBFEB"/>
  <path d="M69.968 4.00391C69.4504 4.02147 68.9598 4.23875 68.5989 4.61011C68.2379 4.98146 68.0348 5.47825 68.032 5.99609V35.2322C68.0317 35.7177 68.2082 36.1865 68.5283 36.5515C68.8485 36.9166 69.2905 37.1529 69.772 37.2161C72.5128 37.5729 75.1889 38.3176 77.72 39.428C78.165 39.623 78.6657 39.6494 79.1287 39.5022C79.5917 39.355 79.9853 39.0444 80.236 38.6282L95.344 13.6521C95.486 13.418 95.5784 13.1572 95.6155 12.886C95.6526 12.6147 95.6336 12.3388 95.5598 12.0752C95.4859 11.8116 95.3587 11.566 95.186 11.3535C95.0134 11.1411 94.7989 10.9663 94.556 10.8401C86.9798 6.91363 78.6773 4.58661 70.164 4.00391H69.968ZM72.032 8.36401C78.5056 9.04986 84.8177 10.82 90.704 13.6001L77.584 35.28C75.7816 34.6062 73.9239 34.0909 72.032 33.74V8.36401Z" fill="#E9EDED"/>
  <path d="M90.236 83.3918C89.9544 83.409 89.6794 83.485 89.4287 83.6145C89.178 83.744 88.957 83.9241 88.78 84.1438C87.172 86.1598 85.3 87.9441 83.22 89.4641C82.8272 89.751 82.5525 90.1713 82.4472 90.6462C82.3419 91.1211 82.4133 91.6181 82.648 92.0442L94.828 114.168C94.96 114.409 95.1401 114.619 95.3571 114.787C95.5741 114.955 95.8234 115.077 96.0894 115.145C96.3555 115.212 96.6325 115.224 96.9034 115.18C97.1743 115.136 97.4332 115.036 97.664 114.888C103.883 110.854 109.273 105.667 113.544 99.6082C113.703 99.3842 113.815 99.1295 113.871 98.8606C113.928 98.5917 113.928 98.3143 113.872 98.0452C113.817 97.7761 113.707 97.5212 113.548 97.2966C113.39 97.0721 113.187 96.8826 112.952 96.74L91.376 83.6838C91.0334 83.476 90.6363 83.3761 90.236 83.3962V83.3918ZM90.6 87.8879L108.688 98.8318C105.402 103.113 101.491 106.876 97.088 109.996L86.884 91.4519C88.216 90.3599 89.448 89.1719 90.6 87.8879Z" fill="#60C5B8"/>
  <path d="M91.9759 28.6401C91.6541 28.6605 91.3419 28.7586 91.0661 28.9257C90.7903 29.0929 90.559 29.3242 90.3919 29.6001L83.688 40.6801C83.4357 41.0954 83.3433 41.5884 83.4279 42.0669C83.5126 42.5453 83.7685 42.9767 84.148 43.2802C86.156 44.8802 87.936 46.7444 89.452 48.8164C89.7392 49.2112 90.1609 49.4869 90.6376 49.5923C91.1143 49.6976 91.6131 49.6251 92.04 49.3881L103.4 43.1284C103.643 42.9943 103.856 42.8108 104.025 42.5898C104.194 42.3688 104.314 42.1149 104.379 41.8447C104.445 41.5745 104.453 41.294 104.403 41.0205C104.354 40.7469 104.248 40.4866 104.092 40.2563C101.154 35.9285 97.5024 32.1317 93.292 29.0283C92.9131 28.7467 92.4471 28.6117 91.9759 28.6401ZM92.484 33.872C94.996 35.94 97.2439 38.2762 99.2119 40.8642L91.4359 45.144C90.3518 43.8236 89.167 42.5893 87.8919 41.4521L92.484 33.872Z" fill="#CAD1D8"/>
  <path d="M96.8279 67.9958C96.3417 67.9957 95.8722 68.1729 95.507 68.4939C95.1419 68.8149 94.9061 69.2578 94.8439 69.74C94.4893 72.4877 93.7444 75.1705 92.6319 77.7078C92.4369 78.1528 92.4106 78.6539 92.5578 79.1169C92.705 79.5799 93.0157 79.9732 93.4319 80.2239L108.024 89.0598C108.261 89.2033 108.524 89.2965 108.799 89.3328C109.073 89.369 109.352 89.3478 109.618 89.2708C109.884 89.1937 110.131 89.0624 110.343 88.885C110.555 88.7076 110.729 88.4878 110.852 88.24C113.649 82.5858 115.353 76.4547 115.876 70.1682C115.9 69.8921 115.866 69.6141 115.777 69.3518C115.687 69.0895 115.545 68.8485 115.357 68.6443C115.17 68.4401 114.942 68.2769 114.689 68.1653C114.435 68.0537 114.161 67.9959 113.884 67.9958H96.8279ZM98.3279 71.9958H111.288C110.725 76.2336 109.574 80.3726 107.868 84.2922L96.7799 77.572C97.4599 75.764 97.9759 73.8998 98.3279 71.9958Z" fill="#34485C"/>
  <path d="M120.656 38.552C120.296 38.552 119.936 38.624 119.616 38.8L93.992 52.8918C93.5657 53.1257 93.2391 53.5069 93.0735 53.9641C92.9078 54.4213 92.9144 54.9235 93.092 55.3762C93.964 57.5842 94.564 59.8881 94.876 62.2361C94.9383 62.7183 95.174 63.1612 95.5391 63.4822C95.9043 63.8032 96.3739 63.9803 96.86 63.9802H126C126.273 63.9797 126.544 63.9229 126.795 63.8137C127.045 63.7046 127.271 63.5453 127.458 63.3455C127.644 63.1456 127.788 62.9097 127.88 62.6521C127.972 62.3945 128.01 62.1208 127.992 61.8479C127.51 54.1874 125.614 46.6826 122.4 39.7122C122.245 39.3765 122 39.0903 121.692 38.8855C121.384 38.6807 121.026 38.5652 120.656 38.552ZM119.312 43.5359C121.496 48.7841 122.898 54.3249 123.472 59.9802H98.392C98.1169 58.5139 97.7427 57.0678 97.272 55.6521L119.312 43.5359Z" fill="#576D7E"/>
  <path d="M26.264 67.9959C25.9843 67.9956 25.7077 68.054 25.452 68.1672C25.1962 68.2805 24.9671 68.4462 24.7794 68.6536C24.5917 68.8609 24.4495 69.1052 24.3621 69.3709C24.2747 69.6365 24.244 69.9178 24.272 70.196C24.6818 74.4112 25.7255 78.5405 27.368 82.4441C27.476 82.7026 27.6372 82.9354 27.841 83.1277C28.0448 83.3199 28.2867 83.467 28.551 83.5598C28.8154 83.6526 29.0963 83.689 29.3755 83.6663C29.6548 83.6435 29.9261 83.5623 30.172 83.428L38.052 79.092C38.4783 78.8582 38.8049 78.477 38.9705 78.0198C39.1362 77.5626 39.1296 77.0608 38.952 76.6082C38.0863 74.3993 37.4939 72.0927 37.188 69.74C37.1258 69.2578 36.89 68.8149 36.5249 68.4939C36.1597 68.1729 35.6902 67.9957 35.204 67.9959H26.264ZM28.812 71.9959H33.664C33.936 73.4639 34.312 74.908 34.784 76.324L30.5 78.6838C29.7354 76.5104 29.1704 74.2718 28.812 71.9959Z" fill="#78C8F0"/>
  <path d="M35.4999 16.9602C35.135 16.967 34.7797 17.0779 34.4759 17.2801C28.2763 21.2881 22.8965 26.44 18.6239 32.4602C18.4656 32.6843 18.355 32.9382 18.2992 33.2068C18.2433 33.4755 18.2434 33.7531 18.2993 34.0218C18.3552 34.2904 18.4658 34.5443 18.6241 34.7683C18.7825 34.9924 18.9853 35.1817 19.2199 35.324L40.7119 48.324C41.1255 48.5749 41.6161 48.6674 42.0927 48.5843C42.5693 48.5012 42.9996 48.2479 43.3039 47.8719C44.9116 45.8696 46.7772 44.089 48.8519 42.576C49.2454 42.2896 49.5209 41.8697 49.6269 41.3948C49.733 40.9199 49.6622 40.4224 49.4279 39.9959L37.3119 17.9881C37.1335 17.6668 36.87 17.4009 36.5503 17.2195C36.2307 17.0382 35.8672 16.9486 35.4999 16.9602ZM35.0479 22.1682L45.1879 40.5921C43.8639 41.6721 42.6319 42.8518 41.4919 44.1238L23.4919 33.24C26.7719 28.9952 30.6667 25.2637 35.0479 22.1682Z" fill="#FCD062"/>
  <path d="M61.84 16.0719C56.2324 16.5319 50.7423 17.9329 45.6 20.216C45.3478 20.3289 45.1217 20.4928 44.936 20.6974C44.7503 20.902 44.6091 21.143 44.5211 21.4049C44.4332 21.6669 44.4005 21.9442 44.425 22.2194C44.4496 22.4946 44.531 22.7618 44.664 23.004L52.936 38.0519C53.1711 38.4768 53.5529 38.8018 54.0099 38.966C54.467 39.1301 54.9682 39.1222 55.42 38.944C57.6238 38.0789 59.9247 37.4852 62.272 37.1759C62.7527 37.1119 63.1938 36.8754 63.5131 36.5104C63.8325 36.1454 64.0083 35.677 64.008 35.192V18.0719C64.0089 17.7949 63.9523 17.5207 63.8417 17.2667C63.7311 17.0127 63.5689 16.7844 63.3654 16.5963C63.162 16.4083 62.9217 16.2647 62.6598 16.1745C62.3979 16.0842 62.1201 16.0492 61.844 16.0719H61.84ZM60.008 20.6237V33.6637C58.5502 33.9399 57.1123 34.3129 55.704 34.7799L49.4 23.3161C52.82 21.9961 56.368 21.0997 60.008 20.6237Z" fill="#F8B84E"/>
  <path d="M41.048 82.3561C40.6833 82.349 40.3228 82.4339 40 82.6037L14.42 96.676C14.1813 96.8077 13.972 96.9867 13.805 97.2023C13.6381 97.4179 13.517 97.6657 13.4492 97.9299C13.3814 98.194 13.3683 98.4691 13.4107 98.7385C13.4532 99.0078 13.5502 99.2653 13.696 99.4958C18.0529 106.339 23.7056 112.265 30.336 116.94C30.5605 117.099 30.8153 117.209 31.0845 117.265C31.3537 117.321 31.6316 117.321 31.9007 117.265C32.1699 117.209 32.4245 117.097 32.6488 116.938C32.873 116.779 33.062 116.576 33.204 116.34L48.336 91.34C48.5871 90.9251 48.6789 90.4328 48.5943 89.9553C48.5097 89.4777 48.2544 89.0472 47.876 88.7438C45.8728 87.1326 44.0919 85.2629 42.58 83.1838C42.4036 82.9392 42.1741 82.7378 41.9088 82.5944C41.6435 82.451 41.3493 82.3697 41.048 82.3561ZM40.592 86.8478C41.68 88.1798 42.856 89.42 44.132 90.568L31 112.264C26.1324 108.551 21.8826 104.092 18.408 99.0519L40.592 86.8478Z" fill="#F05542"/>
  <path d="M53.532 92.4281C53.1831 92.4239 52.8391 92.5104 52.5335 92.6786C52.2279 92.8469 51.971 93.0911 51.788 93.3881L45.056 104.52C44.9127 104.757 44.8203 105.022 44.7846 105.296C44.7489 105.571 44.7707 105.85 44.8485 106.116C44.9264 106.382 45.0586 106.629 45.2368 106.841C45.4151 107.053 45.6354 107.226 45.884 107.348C50.8745 109.816 56.271 111.36 61.812 111.904C62.0899 111.932 62.3705 111.901 62.6357 111.813C62.9009 111.725 63.1448 111.583 63.3517 111.395C63.5586 111.207 63.7238 110.978 63.8369 110.723C63.9499 110.468 64.0082 110.191 64.008 109.912V96.8041C64.0071 96.3186 63.8297 95.8501 63.5088 95.4857C63.1879 95.1214 62.7454 94.8863 62.264 94.8241C59.5206 94.4622 56.8429 93.7107 54.312 92.5922C54.066 92.4843 53.8005 92.4284 53.532 92.4281ZM54.436 96.7401C56.248 97.4201 58.104 97.9442 60.008 98.3002V107.296C56.4996 106.759 53.0736 105.78 49.812 104.38L54.436 96.7401Z" fill="#F17F53"/>
  <path d="M57.976 47.9958H57.78C57.2877 48.0463 56.8317 48.2776 56.4999 48.6448C56.1682 49.012 55.9844 49.4893 55.984 49.9841C55.84 50.3241 55.272 50.284 55.272 50.696V55.7761C55.272 56.8161 56.14 57.4358 56.72 58.2278V59.4119C56.72 60.1519 56.764 60.2319 56.764 59.6599C56.764 59.4879 56.72 59.6601 56.72 60.1521V62.304C56.72 64.716 57.832 66.744 59.344 68.384C59.252 68.544 59.256 68.796 58.968 69.012C58.368 69.464 57.064 69.9842 55.516 70.6682H55.508C53.928 71.3282 52.068 72.2321 50.524 73.8801L50.484 73.928C48.964 75.668 48 78.1358 48 81.2478V81.9958C48 82.5263 48.2107 83.0353 48.5858 83.4104C48.9609 83.7855 49.4696 83.9958 50 83.9958H82C82.5304 83.9958 83.0391 83.7855 83.4142 83.4104C83.7893 83.0353 84 82.5263 84 81.9958V81.2478C84 78.2078 83.02 75.748 81.428 74.052C79.916 72.436 78.088 71.576 76.524 70.928C75.036 70.308 73.82 69.7801 73.156 69.2961C72.652 68.8921 72.544 68.7238 72.46 67.9758C73.86 66.3558 75.272 64.6158 75.272 62.3118V55.78C75.272 52.3 72.44 49.3962 68.936 49.3962H60.42C60.624 49.3962 60.032 49.3241 59.952 49.2961L60.124 49.3679C59.932 49.2679 58.912 49.0761 59.336 49.5081L59.256 49.9402C58.72 50.2522 60.72 50.44 60.72 50.7C60.72 50.32 60.132 50.3518 59.976 50.0198C59.9787 49.9006 59.9706 49.7815 59.952 49.6638L59.928 49.7039C59.8561 49.2358 59.6204 48.8089 59.263 48.4983C58.9055 48.1877 58.4495 48.0139 57.976 48.0081V47.9958ZM56.032 50.4519L56.04 50.4919L56.072 50.6121C56.08 50.6521 56.084 50.6642 56.096 50.6882L56.108 50.7278L56.164 50.844C56.2213 50.9639 56.2882 51.0791 56.364 51.1882C56.404 51.2442 56.448 51.292 56.492 51.344C56.532 51.392 56.572 51.4358 56.616 51.4758L56.664 51.5159H56.68C56.716 51.5559 56.752 51.5758 56.788 51.6038C56.844 51.6438 56.896 51.6802 56.952 51.7122L56.984 51.7522L57.008 51.8L57.132 52.012L56.28 50.324L56.032 50.4719V50.4519ZM59.272 53.1599C59.64 53.2479 60.008 53.4001 60.42 53.4001H68.936C69.5612 53.4065 70.1584 53.6605 70.5964 54.1067C71.0343 54.5529 71.2773 55.1548 71.272 55.78V62.3079C71.272 64.0359 70.476 65.5079 69.212 66.4719C68.9425 66.6763 68.7292 66.9459 68.5921 67.2551C68.455 67.5643 68.3985 67.903 68.428 68.24C68.596 70.052 69.564 71.5558 70.664 72.4358L70.712 72.4758C72.036 73.4678 73.516 74.0118 74.984 74.6238C76.396 75.2118 77.632 75.8399 78.516 76.7839C79.156 77.4679 79.364 78.7358 79.584 79.9958H52.4C52.616 78.6518 52.84 77.3362 53.48 76.6082C54.408 75.6242 55.668 74.9518 57.056 74.3718H57.096C58.496 73.7478 59.992 73.272 61.368 72.24C62.468 71.412 63.416 70.0199 63.64 68.3879C63.6885 68.0333 63.641 67.6725 63.5024 67.3425C63.3638 67.0126 63.1392 66.7255 62.852 66.512C62.1881 66.0348 61.648 65.4056 61.2771 64.677C60.9062 63.9484 60.7152 63.1416 60.72 62.324V60.176C60.72 60.348 60.764 60.1758 60.764 59.6838C60.764 58.9478 60.72 58.8638 60.72 59.4358V58.2361C60.7199 57.8836 60.6266 57.537 60.4496 57.2322C60.2726 56.9273 60.0181 56.6751 59.712 56.5002C59.5807 56.4351 59.47 56.3345 59.3924 56.2102C59.3147 56.0859 59.273 55.9427 59.272 55.7961V53.1799V53.1599Z" fill="#2B4255"/>
</svg>